<svg id="Capa_2" data-name="Capa 2" xmlns="http://www.w3.org/2000/svg" viewBox="0 0 1923.89 1138.9"><defs><style>.cls-1,.cls-10,.cls-11,.cls-12,.cls-13,.cls-14,.cls-15,.cls-16,.cls-2,.cls-3,.cls-4,.cls-5,.cls-6,.cls-7,.cls-8,.cls-9{fill:none;stroke:#fff;stroke-miterlimit:10;}.cls-1{stroke-width:6px;}.cls-2{stroke-width:5.56px;}.cls-3{stroke-width:5.11px;}.cls-4{stroke-width:4.67px;}.cls-5{stroke-width:4.22px;}.cls-6{stroke-width:3.78px;}.cls-7{stroke-width:3.33px;}.cls-8{stroke-width:2.89px;}.cls-9{stroke-width:2.44px;}.cls-10{stroke-width:2px;}.cls-11{stroke-width:3.97px;}.cls-12{stroke-width:3.28px;}.cls-13{stroke-width:2.58px;}.cls-14{stroke-width:1.89px;}.cls-15{stroke-width:1.19px;}.cls-16{stroke-width:0.5px;}</style></defs><line class="cls-1" x1="358.47" y1="1135.91" x2="1.94" y2="1103.64"/><line class="cls-2" x1="323.45" y1="1135.05" x2="1.94" y2="987.23"/><line class="cls-3" x1="288.43" y1="1134.19" x2="1.94" y2="870.81"/><line class="cls-4" x1="253.4" y1="1133.33" x2="1.94" y2="754.4"/><line class="cls-5" x1="218.38" y1="1132.47" x2="1.94" y2="637.98"/><line class="cls-6" x1="183.36" y1="1131.61" x2="1.94" y2="521.57"/><line class="cls-7" x1="148.33" y1="1130.75" x2="1.94" y2="405.15"/><line class="cls-8" x1="113.31" y1="1129.89" x2="1.94" y2="288.74"/><line class="cls-9" x1="78.29" y1="1129.03" x2="1.94" y2="172.32"/><line class="cls-10" x1="43.26" y1="1128.17" x2="1.94" y2="55.91"/><line class="cls-1" x1="358.47" y1="2.99" x2="1.94" y2="35.25"/><line class="cls-2" x1="323.45" y1="3.85" x2="1.94" y2="151.67"/><line class="cls-3" x1="288.43" y1="4.71" x2="1.94" y2="268.08"/><line class="cls-4" x1="253.4" y1="5.57" x2="1.94" y2="384.5"/><line class="cls-5" x1="218.38" y1="6.43" x2="1.94" y2="500.91"/><line class="cls-6" x1="183.36" y1="7.29" x2="1.94" y2="617.33"/><line class="cls-7" x1="148.33" y1="8.15" x2="1.94" y2="733.74"/><line class="cls-8" x1="113.31" y1="9.01" x2="1.94" y2="850.16"/><line class="cls-9" x1="78.29" y1="9.87" x2="1.94" y2="966.57"/><line class="cls-10" x1="43.26" y1="10.73" x2="1.94" y2="1082.99"/><line class="cls-1" x1="1565.41" y1="1135.91" x2="1921.94" y2="1103.64"/><line class="cls-2" x1="1600.44" y1="1135.05" x2="1921.94" y2="987.23"/><line class="cls-3" x1="1635.46" y1="1134.19" x2="1921.94" y2="870.81"/><line class="cls-4" x1="1670.48" y1="1133.33" x2="1921.94" y2="754.4"/><line class="cls-5" x1="1705.51" y1="1132.47" x2="1921.94" y2="637.98"/><line class="cls-6" x1="1740.53" y1="1131.61" x2="1921.94" y2="521.57"/><line class="cls-7" x1="1775.55" y1="1130.75" x2="1921.94" y2="405.15"/><line class="cls-8" x1="1810.58" y1="1129.89" x2="1921.94" y2="288.74"/><line class="cls-9" x1="1845.6" y1="1129.03" x2="1921.94" y2="172.32"/><line class="cls-10" x1="1880.63" y1="1128.17" x2="1921.94" y2="55.91"/><line class="cls-1" x1="1565.41" y1="2.99" x2="1921.94" y2="35.25"/><line class="cls-2" x1="1600.44" y1="3.85" x2="1921.94" y2="151.67"/><line class="cls-3" x1="1635.46" y1="4.71" x2="1921.94" y2="268.08"/><line class="cls-4" x1="1670.48" y1="5.57" x2="1921.94" y2="384.5"/><line class="cls-5" x1="1705.51" y1="6.43" x2="1921.94" y2="500.91"/><line class="cls-6" x1="1740.53" y1="7.29" x2="1921.94" y2="617.33"/><line class="cls-7" x1="1775.55" y1="8.15" x2="1921.94" y2="733.74"/><line class="cls-8" x1="1810.58" y1="9.01" x2="1921.94" y2="850.16"/><line class="cls-9" x1="1845.6" y1="9.87" x2="1921.94" y2="966.57"/><line class="cls-10" x1="1880.63" y1="10.73" x2="1921.94" y2="1082.99"/><ellipse class="cls-4" cx="987.41" cy="734.87" rx="453.18" ry="84.71"/><ellipse class="cls-11" cx="987.41" cy="734.87" rx="394.69" ry="73.77"/><ellipse class="cls-12" cx="987.41" cy="734.87" rx="336.21" ry="62.84"/><ellipse class="cls-13" cx="987.41" cy="734.87" rx="277.73" ry="51.91"/><ellipse class="cls-14" cx="987.41" cy="734.87" rx="219.25" ry="40.98"/><ellipse class="cls-15" cx="987.41" cy="734.87" rx="160.76" ry="30.05"/><ellipse class="cls-16" cx="987.41" cy="734.87" rx="102.28" ry="19.12"/></svg>