<?xml version="1.0" encoding="UTF-8"?>
<svg id="Capa_1" data-name="Capa 1" xmlns="http://www.w3.org/2000/svg" viewBox="0 0 1472.87 368.57">
  <defs>
    <style>
      .cls-1 {
        fill: #fff;
      }

      .cls-2 {
        fill: #4a5c4e;
      }

      .cls-3 {
        fill: none;
        stroke: #fff;
        stroke-miterlimit: 10;
        stroke-width: 3px;
      }

      .cls-4 {
        fill: #da5b41;
      }

      .cls-5 {
        fill: #a1d5d8;
      }

      .cls-6 {
        fill: #65b565;
      }
    </style>
  </defs>
  <g>
    <path class="cls-2" d="M1390.39,63.52c.7-6.14,.45-12.63-.73-18.71,31.81,7.81,59.26,27.67,83.2,53.24-28.09-16.96-55.8-30.45-82.47-34.53Z"/>
    <path class="cls-4" d="M1176.42,339.14l-90.33,23.02,23.09-96.05c9.33,32.66,33.87,63.15,67.24,73.03Z"/>
    <path class="cls-4" d="M1378.9,56.55c0,6.35-1.21,12.74-3.52,18.54-24.88-24.1-58.63-38.07-93.23-39.14,21.47-49.18,97.15-33.28,96.75,20.6Z"/>
    <path class="cls-6" d="M1273.09,182.37l-125.79,125.79c-19.96-19.74-30.95-47.52-30.67-74.51,.11-23.76,8.16-47.35,24.25-66.63,37.91,26.59,89.12,32.39,132.21,15.36Z"/>
    <path class="cls-5" d="M1369.55,85.85c-20.47,18.97-62.36,67.88-87.61,79.41-49.01,26.33-113.24,16.96-152.58-23.24,30.21-27.92,70.52-81.21,114.04-89.74,44.02-12.23,93.73,.67,126.14,33.56Z"/>
    <path class="cls-2" d="M1392.6,141.46c0,20.11-7.68,40.22-23.02,55.57l-111.13,111.13c-26.77,27.21-71.17,30.83-102.11,7.77,49.71-49.71,170.06-170.06,221.01-221.01,10.14,13.79,15.25,30.17,15.25,46.54Z"/>
  </g>
  <g>
    <path class="cls-5" d="M693.02,259.46c-4.16-6.59-9.93-10.14-17.93-10.08-5.23,.04-7.45-1.8-8.42-5.98-3-12.95-6.8-16.63-19.47-18.79-.03-1.45,1.23-2.02,2.02-2.84,8.18-8.56,16.42-17.08,24.62-25.63,16.11-16.8,15.96-40.09-.38-56.6-10.15-10.26-20.44-20.38-30.51-30.71-8.43-8.64-14.98-18.63-20.23-29.48-.5-1.04-1.4-2.03-1.05-3.76,3.6,2.05,7.09,4.01,10.55,6,27.66,15.97,55.36,31.89,82.96,47.96,6.89,4.01,13.7,5.09,20.79,.94,1.44-.85,2.09-.41,2.98,.65,4.53,5.32,10.32,7.58,17.3,7.6,6.96,.02,9.68,2.43,10.72,9.19,1.51,9.83,7.08,15.88,16.52,18.57,2.36,3.05-.05,5.47-1.3,7.79-7.98,14.8-16.24,29.43-25.83,43.28-3.86,5.57-7.48,11.31-12.17,16.25-1.08,1.14-2,2.74-4.03,1.91-3.89-8.2-10.31-12.33-19.45-12.13-4.21,.09-6.15-2.38-6.68-6.21-.62-4.44-2.18-8.39-5.51-11.53-2.93-2.76-6.6-3-9.1-.59-2.46,2.37-2.59,5.8,.03,8.73,1.56,1.74,2.13,3.67,2.58,5.83,2.21,10.5,8.3,15.61,18.96,16.05,5.58,.23,7.21,1.73,7.81,7.19,.76,2.93-.39,5.02-2.87,6.51-8.84,5.28-18.19,9.21-28.38,11.01-1.74,.31-3.23,.11-4.54-1.1Z"/>
    <path class="cls-5" d="M568.02,.03c38.02,2.16,70.35,16.69,97.18,43.54,9.34,9.34,18.7,18.65,28,28.04,2.46,2.49,5.17,3.68,8.37,1.83,1.49-.86,2.17-.26,3.08,.66,2.87,2.91,5.75,5.8,8.67,8.66,.93,.91,1.56,1.61,.68,3.08-1.94,3.23-.68,5.92,1.79,8.36,5.82,5.74,11.5,11.61,17.38,17.27,1.91,1.84,2.42,2.97,.25,5.13-5.25,5.23-6.47,5.54-13.02,1.76-34.87-20.1-69.7-40.27-104.63-60.26-14.99-8.58-31.11-14.27-48.17-17.05-3.51-.57-4.96-2.14-5.62-5.5-1.96-10.04-3.52-20.1-3.51-30.35,0-5.26,0-5.3,5.15-5.18,1.5,.04,2.99,0,4.4,0Z"/>
    <path class="cls-2" d="M785.81,154.1c-3.85-.72-5.73-3.3-6.48-6.92-.72-3.45-1.14-6.99-3.04-10.08-3.8-6.19-9.22-9.85-16.53-10.48-2.03-.17-4.08-.14-6.1-.39-2.91-.35-5.13-1.92-6.29-4.58-1.15-2.62,1.56-3.49,2.79-4.8,11.61-12.23,23.37-24.33,35.03-36.51,15.23-15.9,36.31-16.31,52.03-.94,1.75,1.71,3.39,3.52,5.08,5.29,1.11,2.79-1.24,3.22-2.85,3.87-3.65,1.47-7.42,2.65-11.17,3.84-9.93,3.14-16.39,9.48-19.5,19.58-3.96,12.85-9.21,25.25-14.55,37.58-2.27,5.24-2.64,5.23-8.41,4.54Z"/>
    <path class="cls-4" d="M603.56,90.95c-16.33-.63-32.66-1.14-48.98-1.94-11.28-.56-22.58-.6-33.84-1.9-7.98-.92-13.78-3.71-15.66-12.36-1.06-4.88-2.89-9.62-4.7-14.31-1.26-3.28,.07-4.39,2.99-5.12,22.02-5.51,44.14-6.15,66.36-1.46,5.97,1.26,11.94,2.58,17.54,5.11,1.49,1.59,2.65,3.36,3.44,5.42,2.92,7.62,7.06,14.58,11.51,21.38,1.02,1.56,2.37,3.07,1.32,5.17Z"/>
    <path class="cls-4" d="M633.13,124.37c-19.81,4.21-39.28,10-59.55,12.01-20.22,2.01-23.6,.94-37.71-13.7-6.8-7.06-12.92-14.63-18.15-23.17,9,.46,17.65,.95,26.3,1.34,22.86,1.03,45.73,2.02,68.59,3.03,.81,.04,1.62,.19,2.43,.29,7.75,3.63,12.4,10.73,18.27,16.45,.99,.97,1.81,2.59-.17,3.74Z"/>
    <path class="cls-4" d="M513.52,363.22c5.5-5.84,10.94-11.73,16.53-17.49,2.68-2.76,4.54-5.56,2.17-9.35-.89-1.43,.21-1.98,.89-2.7,1.86-1.99,3.76-3.94,5.67-5.88,2.1-2.14,3.65-4.86,7.7-2.93,2.55,1.22,4.74-1.15,6.58-3.08,13-13.57,26.03-27.11,39.07-40.65,1.03-1.07,2.16-2.04,3.24-3.06,1.83,.89,1.76,2.61,1.8,4.23,.1,5.04,.11,10.07-.02,15.11-.07,2.67-.97,5.11-2.31,7.32-7.96,13.15-15.21,26.76-24.02,39.36-9.03,12.92-21.92,19.63-37.57,20.89-5.01,.4-10.07,.16-15.11,.05-1.73-.04-3.64,.18-4.62-1.82Z"/>
    <path class="cls-4" d="M654.39,155.88c-13.38,7.11-27.65,11.83-42.19,15.84-.94,.26-1.85,.41-2.76-.12-12.67-7.33-25.34-14.65-38.98-22.54,7.91-.93,14.8-1.37,21.52-2.87,17.1-3.81,34.2-7.65,51.3-11.46,.65-.15,1.34-.17,2.01-.25,2.91,.62,4.61,2.61,5.9,5.12,1.74,3.38,3.41,6.75,4.26,10.52,.49,2.19,.23,4-1.06,5.74Z"/>
    <path class="cls-2" d="M614.28,289.71c-1.2-20.61,5.8-38.06,20.25-52.65,.73-.74,1.35-1.94,2.66-1.43,3.89,1.51,8.03,1.17,12.02,1.87,3.34,.58,4.68,3.29,5.15,6.54,1.32,9.17,6.44,15,15.48,17.29,.89,2.92-1.63,3.37-3.27,4.2-14.09,7.13-28.21,14.2-42.34,21.26-1.83,.91-3.66,1.81-5.43,2.83-1.47,.85-2.99,1.42-4.52,.09Z"/>
    <path class="cls-4" d="M513.52,363.22c7.6-.14,15.2,.59,22.79-.48,16.7-2.35,28.68-11.38,37.08-25.72,6.25-10.67,12.69-21.22,19.06-31.81,1.93-3.21,3.11-6.58,3.01-10.41-.14-5.57-.07-11.15-.09-16.72,2.18-2.39,4.35-4.78,6.37-7,1.16,.15,1.14,.73,1.06,1.24-1.67,11.39-.74,22.85-.92,34.27-.03,1.99-.5,3.67-1.52,5.36-6.98,11.52-13.85,23.1-20.82,34.62-8.75,14.45-21.58,21.85-38.51,21.95-10.6,.07-21.19,.01-32.44,.01,1.55-2.44,3.17-3.95,4.93-5.33Z"/>
    <path class="cls-4" d="M588.4,355.8c2.09-3.54,3.84-6.54,5.63-9.53,5.52-9.2,11.09-18.37,16.53-27.62,1.16-1.97,2.63-3.31,4.65-4.31,7.73-3.83,15.4-7.76,23.16-11.69,.19,.62,.41,.92,.33,1.11-5.06,12.14-9.2,24.77-15.97,36.05-7.41,12.34-19.36,16.81-34.33,16Z"/>
    <path class="cls-5" d="M740.17,235.72c10.47-11.22,18.28-24.34,26.27-37.29,5.42-8.79,10.2-17.98,15.23-27.02,.86-1.54,1.76-3.09,1.84-4.93,2.58,.17,5.15,.51,7.72,.48,2.77-.03,2.88,1,1.76,3.12-3.92,7.46-7.67,15-11.66,22.42-1.87,3.49-3.16,6.75,.36,9.9,1.06,.95,.34,1.68-.11,2.45-1.37,2.34-2.75,4.68-4.18,6.99-1.58,2.54-2.68,5.4-6.92,4.24-2.63-.72-4.28,1.82-5.68,3.9-5.47,8.12-10.56,16.51-17.42,23.6-3.03,3.13-4.78,2.73-5.98-1.49-.59-2.07-.83-4.25-1.23-6.38Z"/>
    <path class="cls-2" d="M785.81,154.1c3.35,.44,5.05-1.18,6.33-4.23,5.36-12.78,10.8-25.53,14.94-38.76,3.28-10.48,10.03-17.13,20.36-20.42,3.88-1.24,7.75-2.54,11.6-3.87,1.24-.43,2.75-.54,3.24-2.13,2.36,2.62,4.71,5.23,7.2,7.99-2.43,1.55-5.72,2.2-8.81,3.27-4.61,1.6-9.32,2.93-13.46,5.66-7.11,4.68-11.61,11.25-14.25,19.25-3.61,10.96-7.86,21.67-12.29,32.33-.97,2.33-2.01,3.24-4.47,2.2-3.32-1.41-7.05,.13-10.41-1.29Z"/>
    <path class="cls-2" d="M614.28,289.71c5.32-2.67,10.63-5.34,15.96-8,12.61-6.28,25.22-12.56,37.85-18.81,.77-.38,1.42-.76,1.75-1.57,2.3,.15,4.61,.31,6.91,.46,2.38,.16,4.08,1.39,5.22,3.41,.64,1.14,.93,2.02-.87,2.73-16.33,6.46-31.39,15.52-47.13,23.19-5.62,2.74-11.18,5.57-16.7,8.5-2.23,1.18-3.44,1.42-3.18-1.77,.22-2.7,.15-5.43,.2-8.14Z"/>
    <path class="cls-4" d="M650.08,171.85c6.65-3.34,13.35-6.6,19.93-10.07,2.19-1.15,2.79-.54,3.1,1.64,1.17,8.41-.72,15.95-6.4,22.35-3.16,3.55-6.59,6.86-9.84,10.34-1.15,1.23-2.09,1.78-3.8,.71-5.05-3.16-10.22-6.12-15.34-9.16,.32-3.78,3.57-5.63,5.58-8.26,2.04-2.68,4.66-4.9,6.77-7.55Z"/>
    <path class="cls-4" d="M603.56,90.95c-5.78-8.22-10.96-16.77-14.7-26.14-.75-1.89-1.6-3.74-1.58-5.84,5.44,1.28,10.36,3.85,15.43,6.08,1.05,.46,1.74,1.15,2.1,2.27,2.65,8.23,5.97,16.19,10.48,24.4-4.34-.29-8.03-.54-11.73-.78Z"/>
    <path class="cls-5" d="M693.02,259.46c11.66-1.52,22.36-5.67,32.38-11.72,1.83-1.1,3.36-2.34,3.42-4.69,1.06,3.96,2.42,7.77,5.77,11-11.64,7.52-24.05,11.57-37.63,12.13-1.61,.07-2.12-.73-2.47-2.07-.41-1.57-.97-3.11-1.47-4.66Z"/>
    <path class="cls-4" d="M654.39,155.88c-.45-8.23-3.98-15.15-9.1-21.39,2.91-1.48,5.16-1.03,7.46,1.57,3.58,4.05,7.55,7.77,11.45,11.53,1.59,1.53,2.24,2.55-.35,3.68-3.21,1.41-6.31,3.06-9.46,4.61Z"/>
    <path class="cls-4" d="M650.08,171.85c.73,1.2-.03,2.1-.69,2.92-3.62,4.53-7.09,9.21-11.66,12.88-3.87-2.11-7.74-4.23-12.24-6.69,8.67-3.22,16.63-6.17,24.58-9.12Z"/>
    <path class="cls-4" d="M633.13,124.37c.7-1.92-.97-2.64-1.93-3.64-5.36-5.55-10.77-11.04-16.16-16.56,5.46-1.01,9.36,.67,12.6,5.53,3.13,4.69,7.39,8.62,11.26,13.01-1.76,1.29-3.83,1.23-5.76,1.65Z"/>
  </g>
  <g>
    <rect class="cls-1" x="310.08" y="123.53" width="27" height="121.5"/>
    <rect class="cls-1" x="310.08" y="123.53" width="27" height="121.5" transform="translate(139.3 507.87) rotate(-90)"/>
  </g>
  <g>
    <rect class="cls-1" x="935.91" y="159.13" width="27" height="121.5" transform="translate(729.53 1169.28) rotate(-90)"/>
    <rect class="cls-1" x="935.91" y="87.94" width="27" height="121.5" transform="translate(800.71 1098.1) rotate(-90)"/>
  </g>
  <g>
    <path class="cls-3" d="M156.24,70.06c-16.4-16.4-39.06-26.55-64.09-26.55C42.09,43.51,1.5,84.1,1.5,134.16v100.25c0,50.07,40.59,90.65,90.65,90.65s90.64-40.58,90.64-90.65v-100.25c0-25.03-10.14-47.69-26.55-64.1Zm-84.34,17.3c0-11.5,8.94-20.91,20.25-21.65,.48-.03,.96-.05,1.44-.05,6,0,11.42,2.43,15.35,6.36,3.92,3.93,6.35,9.35,6.35,15.34v36.64c0,11.99-9.71,21.7-21.7,21.7-.48,0-.96-.02-1.44-.05-11.31-.74-20.25-10.14-20.25-21.65v-36.64Z"/>
    <line class="cls-3" x1="1.5" y1="161.13" x2="182.79" y2="161.13"/>
    <path class="cls-3" d="M115.29,87.36v36.64c0,11.99-9.71,21.7-21.7,21.7-.48,0-.96-.02-1.44-.05-11.31-.74-20.25-10.14-20.25-21.65v-36.64c0-11.5,8.94-20.91,20.25-21.65,.48-.03,.96-.05,1.44-.05,6,0,11.42,2.43,15.35,6.36,3.92,3.93,6.35,9.35,6.35,15.34Z"/>
    <line class="cls-3" x1="92.15" y1="161.13" x2="92.15" y2="145.65"/>
    <line class="cls-3" x1="92.15" y1="65.71" x2="92.15" y2="43.51"/>
  </g>
</svg>