<svg id="Capa_1" data-name="Capa 1" xmlns="http://www.w3.org/2000/svg" viewBox="0 0 695.22 639.45"><defs><style>.cls-1{fill:#fff;}</style></defs><path class="cls-1" d="M739.62,325.2a112.25,112.25,0,0,0-1.3-33.63c57.17,14,106.52,49.74,149.55,95.69C837.39,356.77,787.56,332.53,739.62,325.2Z" transform="translate(-192.65 -222.55)"/><path class="cls-1" d="M355,820.62,192.65,862l41.51-172.64C250.92,748.07,295.05,802.87,355,820.62Z" transform="translate(-192.65 -222.55)"/><path class="cls-1" d="M719,312.68A90.85,90.85,0,0,1,712.64,346c-44.71-43.33-105.39-68.43-167.58-70.35C583.64,187.25,719.69,215.84,719,312.68Z" transform="translate(-192.65 -222.55)"/><path class="cls-1" d="M528.78,538.84,302.69,764.94c-35.88-35.48-55.63-85.41-55.12-133.94a187.63,187.63,0,0,1,43.58-119.76C359.29,559,451.33,569.46,528.78,538.84Z" transform="translate(-192.65 -222.55)"/><path class="cls-1" d="M702.15,365.34c-36.79,34.1-112.1,122-157.47,142.74-88.09,47.32-203.54,30.49-274.25-41.77,54.3-50.18,126.75-146,205-161.3C554.55,283,643.89,306.21,702.15,365.34Z" transform="translate(-192.65 -222.55)"/><path class="cls-1" d="M743.6,465.31a140.81,140.81,0,0,1-41.38,99.87L502.46,764.94c-48.12,48.9-127.93,55.42-183.54,14L716.19,381.64A141.23,141.23,0,0,1,743.6,465.31Z" transform="translate(-192.65 -222.55)"/></svg>